<svg width="5" height="4" viewBox="0 0 5 4" fill="none" xmlns="http://www.w3.org/2000/svg"><path d="M3.30928 3.19541c-.61734-.61733-1.23869-1.23999-1.85469-1.85599.12933-.13066.268-.268.39867-.40133.616.61733 1.23868 1.24133 1.85335 1.85866-.12667.12667-.26533.26533-.39733.39866zm.83733-.80931c-.64266-.644-1.28666-1.28936-1.93199-1.930692-.22-.218667-.52135-.217331-.74268.002669-.256.250667-.507995.505358-.761328.758693l-.048014.05332c.892002.892 1.777342 1.77867 2.672002 2.67467.272-.272.54402-.54268.81335-.81601.21867-.22134.22-.52131-.00134-.74265z" fill="#0B0146"/></svg>