<svg width="3" height="3" viewBox="0 0 3 3" fill="none" xmlns="http://www.w3.org/2000/svg"><path d="M1.65337.536772c-.17333 0-.33339.066668-.45339.201334-.13333.132-.199996.290674-.199996.476014 0 .2.066716.36664.186716.50664.13334.13866.29323.20667.49323.20667l.26667-.04665.22669-.15335.13333-.228.06667-.26666c0-.19734-.06661-.362664-.21328-.494664C2.02668.60344 1.85337.536772 1.65337.536772zm.94661-.190658V1.86343c0 .16134-.01336.27735-.02669.35069l-.17331.30797c-.09333.09067-.20005.16135-.32005.21201-.12.04934-.25325.07468-.38659.07468-.2 0-.37341-.06135-.54674-.18002-.160002-.12-.26659-.276-.319924-.46933h.239974c.06667.13466.16005.23734.25339.30801.12.07466.25333.11334.4.11334l.31992-.07868.25338-.23066.06667-.19733.01328-.21068v-.09599c-.05333.12533-.14661.22399-.27995.29599-.13333.064-.26674.096-.41341.096l-.34661-.06934-.29336-.18932-.200002-.30267C.786624 1.48477.76001 1.36344.76001 1.23677l.013281-.17067.053385-.169335.106641-.206673C1.03998.551425 1.16001.450089 1.29334.387423c.10667-.053334.23998-.081315.37331-.081315.14667 0 .28.031996.4.095996.14667.068.23997.163988.30664.287988V.346114h.22669z" fill="#fff"/></svg>