<svg width="2" height="3" viewBox="0 0 2 3" fill="none" xmlns="http://www.w3.org/2000/svg"><path d="M.786621 1.58872H1.0266l.09335.23734.22657.09599.22669-.07998.09336-.21201-.10664-.232-.22669-.10667-.12006-.03734-.06666-.02265-.146618-.09733-.10664-.15199L.853288.798063c0-.142666.053281-.261321.146614-.354655C1.10657.348742 1.2266.302067 1.35993.302067s.25328.046675.34661.141341c.09334.094667.14675.206671.14675.337338h-.24011L1.53324.599398l-.2-.068001-.16003.072005-.07995.17334.09336.202669.21328.093329c.16.04933.27995.10667.34662.16933l.12005.15065.02669.196c0 .16533-.05336.30134-.16002.40667-.10667.10534-.23995.15866-.41329.15866-.14666 0-.26677-.056-.373433-.16666-.106667-.112-.159896-.244-.159896-.39867z" fill="#fff"/></svg>