<svg width="3" height="3" viewBox="0 0 3 3" fill="none" xmlns="http://www.w3.org/2000/svg"><path d="M1.54647.536768c-.2 0-.35998.069338-.50664.205338-.133336.136-.200003.301334-.200003.497334 0 .19066.066745.35199.213413.48799.13333.13333.30656.2.49323.2.18666 0 .34674-.06801.48008-.20267.14666-.13734.21328-.29732.21328-.48132 0-.196-.06667-.362665-.2-.498664-.13334-.138667-.29336-.208008-.49336-.208008zM2.46652.34611v1.77067h-.22669v-.33333c-.06667.11866-.16003.21198-.29336.28131-.12.06267-.25334.09466-.4.09466-.13334 0-.26667-.02932-.4-.09065-.146669-.06267-.266643-.15732-.373309-.28532l-.119922-.20668-.053385-.35602L.66652.884782.786572.683447c.12-.137333.253258-.234695.386588-.296028.12-.053334.23997-.081315.37331-.081315l.2.022656.2.072005c.13333.066667.22669.160016.29336.282682V.34611h.22669z" fill="#fff"/></svg>