<svg width="2" height="3" viewBox="0 0 2 3" fill="none" xmlns="http://www.w3.org/2000/svg"><path d="M.799805 1.58872h.239975l.09336.23734.22669.09599.22669-.07998.09323-.21201-.10664-.232-.22669-.10667-.11992-.03734-.06667-.02265-.14674-.09733L.906445.98208.866471.798063c0-.142666.053282-.261321.146619-.354655.10666-.094666.22677-.141341.37343-.141341.13334 0 .24.046675.33334.141341.10666.094667.14661.206671.14661.337338H1.6265L1.55983.599398l-.2-.068001-.17331.072005-.08007.17334.09335.202669.2267.093329c.16.04933.26661.10667.34661.16933l.10664.15065.04011.196c0 .16533-.05336.30134-.16003.40667-.10667.10534-.25341.15866-.41341.15866-.14667 0-.27992-.056-.386589-.16666-.106667-.112-.160026-.244-.160026-.39867z" fill="#fff"/></svg>