<svg width="3" height="3" viewBox="0 0 3 3" fill="none" xmlns="http://www.w3.org/2000/svg"><path d="M.999984 1.09943H2.36001c-.04-.157333-.11997-.290666-.23997-.4-.13334-.108-.28011-.162662-.44011-.162662-.16 0-.31997.053325-.43997.158658-.13334.105334-.21331.240004-.239976.404004zm1.599996.21735H.999984c0 .164.066666.308.199996.43066.14667.12.29334.17999.46667.17999.13333 0 .25331-.03334.37331-.10401l.25338-.28398h.25326c-.06667.17733-.17334.32401-.33334.44267-.16.11734-.34666.17731-.53333.17731-.25333 0-.47992-.08933-.65325-.26933-.18667-.17867-.26667-.39866-.26667-.65733 0-.258663.08-.477319.26667-.655986.17333-.18.38658-.27067.65325-.27067.13333 0 .26672.030657.38672.090657s.22672.144018.32005.252018l.17331.314649c.02667.096002.03997.214682.03997.353352z" fill="#fff"/></svg>