<svg width="3" height="3" viewBox="0 0 3 3" fill="none" xmlns="http://www.w3.org/2000/svg"><path d="M.354614 2.16211V.215462h.294694V.48877L.893286.258106C.994619.199439 1.11063.171452 1.23997.171452c.14533 0 .26265.029323.35465.089323l.196.252018c.15466-.228.35466-.341341.60133-.341341.19333 0 .34135.053327.44668.159993.10267.106667.15466.271995.15466.494662V2.16211h-.328V.935449c0-.132-.01066-.226652-.032-.285319L2.51728.511458 2.31861.458106c-.13733 0-.25064.045335-.34131.136002-.09066.090667-.13466.237336-.13466.436002v1.132h-.33067V.898112c0-.148-.02668-.257331-.08135-.330664-.05333-.073333-.14133-.109342-.26266-.109342L.909302.530111.737297.746126C.70263.83946.683944.974132.683944 1.15146v1.01065h-.32933z" fill="#3D3C3E"/></svg>