<svg width="3" height="3" viewBox="0 0 3 3" fill="none" xmlns="http://www.w3.org/2000/svg"><path d="M.439925 1.09406H1.79995C1.77328.936726 1.69326.803393 1.57326.694059c-.13333-.108-.27998-.162662-.43998-.162662-.173329 0-.320048.053326-.453381.159993-.133333.104-.213307.238669-.239974.40267zm1.599995.21735H.439925c0 .164.080078.308.213412.432.133333.11866.293255.17864.453253.17864.13334 0 .26672-.0333.38672-.10397l.25326-.28401h.25338c-.06667.17733-.17328.32534-.34661.44267-.16.11733-.33339.17731-.52006.17731-.266662 0-.479996-.0893-.666662-.2693-.173333-.17867-.266667-.39869-.266667-.65736 0-.257331.093334-.47732.266667-.655987C.653284.391403.86667.302067 1.12.302067c.14667 0 .28.029323.4.089323s.22659.144018.31993.252018l.16002.314649c.02667.096003.03997.214683.03997.353353z" fill="#fff"/></svg>