<svg width="3" height="3" viewBox="0 0 3 3" fill="none" xmlns="http://www.w3.org/2000/svg"><path d="M0 2.16211V.215462h.294661V.48877L.538672.258106C.640005.199439.755986.171452.885319.171452c.145331 0 .264021.029323.354691.089323L1.436.512793c.15467-.228.35467-.341341.60134-.341341.19333 0 .34134.053327.44534.159993.10534.106667.15599.271995.15599.494662V2.16211h-.32799V.935449c0-.132-.01067-.226652-.032-.285319L2.16266.511458 1.964.458106c-.13734 0-.25068.045335-.34134.136002-.08934.090667-.13601.237336-.13601.436002v1.132h-.32933V.898112c0-.148-.02664-.257331-.08131-.330664C1.02268.494115.93468.458106.813346.458106L.554655.530111.382682.746126C.348016.83946.330664.974132.330664 1.15146v1.01065H0z" fill="#3D3C3E"/></svg>