<svg width="3" height="3" viewBox="0 0 3 3" fill="none" xmlns="http://www.w3.org/2000/svg"><path d="M.999984 1.09406H2.36001C2.33334.936726 2.25337.803393 2.12004.694059c-.12-.108-.2667-.162662-.4267-.162662-.17333 0-.32005.053326-.45338.159993-.13334.104-.21331.238669-.239976.40267zm1.599996.21735H.999984c0 .164.066616.308.213276.432.13334.11866.29339.17864.45339.17864.13333 0 .26664-.0333.37331-.10397l.26666-.28401h.25339c-.06667.17733-.17341.32534-.34675.44267-.16.11733-.33325.17731-.51992.17731-.26666 0-.48-.0893-.66666-.2693-.173337-.17867-.26667-.39869-.26667-.65736 0-.257331.093333-.47732.26667-.655987.18666-.18.39992-.269336.65325-.269336.14667 0 .28.029323.4.089323s.22672.144018.32005.252018l.16003.314649c.02667.096003.03997.214683.03997.353353z" fill="#fff"/></svg>