<svg width="11" height="5" viewBox="0 0 11 5" fill="none" xmlns="http://www.w3.org/2000/svg"><path d="M5.58671.174073c-1.66667.017333-3.2.517383-4.53334 1.484047-.386662.27467-.613433.66397-.640099 1.09597-.026667.39866.133437.78934.440104 1.07467.466665.448 1.213255.47604 1.786585.0707.77334-.54266 1.60006-.86 2.45339-.94134 1.29333-.124 2.45331.19732 3.50664.94798.26667.188.57328.28933.87995.28933.61336 0 1.14676-.41868 1.30676-1.04134.1467-.56134-.0801-1.12267-.6134-1.50267C8.8133.671417 7.32004.18874 5.58671.174073z" fill="#0B0146"/></svg>