<svg width="3" height="3" viewBox="0 0 3 3" fill="none" xmlns="http://www.w3.org/2000/svg"><path d="M1.09325 1.09406h1.36002C2.4266.936726 2.3465.803393 2.21317.694059c-.13334-.108-.27998-.162662-.43998-.162662-.16 0-.31997.053326-.43997.159993-.13333.104-.21331.238669-.23997.40267zm1.6.21735h-1.6c0 .164.06666.308.2.432.14666.11866.29333.17864.46666.17864.13334 0 .25331-.0333.37331-.10397l.25338-.28401h.25326c-.06667.17733-.17333.32534-.33333.44267-.16.11733-.33334.17731-.53334.17731-.25333 0-.47992-.0893-.65325-.2693-.173335-.17867-.266669-.39869-.266669-.65736 0-.257331.08-.47732.266669-.655987.17333-.18.39992-.269336.65325-.269336.13334 0 .26672.029323.38672.089323.13334.06.23992.144018.31992.252018l.17344.314649c.02667.096003.03998.214683.03998.353353z" fill="#fff"/></svg>