<svg width="16" height="9" viewBox="0 0 16 9" fill="none" xmlns="http://www.w3.org/2000/svg"><path d="M11.0813 3.28212l.2439.05332.0894-.01866c.7707-.72933 1.54-1.46002 2.3106-2.18935l.0134-.11598c-.1027-.362672.1093-.738671.468-.833338.3627-.097334.7347.117313.8253.47998.0627.256-.0026.480028-.1946.658688-.196.18134-.4281.22131-.6801.13864l-.1199.02136c-.756.72133-1.5134 1.44132-2.2734 2.15999l-.04.14535c.0707.26.008.49064-.1906.6733-.1987.18134-.4347.224-.688.132l-.14.02936a810.040603 810.040603 0 01-2.24005 2.01599l-.04001.12933c.09734.36533-.12398.73602-.48398.82268-.37067.08934-.73335-.13333-.81468-.50533l-.09466-.09069c-.64534-.15867-1.29201-.31999-1.93734-.48265l-.10934.03733c-.23467.272-.62398.316-.91332.09867l-.11468-.01068c-.68133.34133-1.36264.68266-2.04531 1.02266l-.068.10934c-.00133.37333-.30267.66933-.67467.66667-.368004-.00267-.664003-.30001-.665336-.66934-.002667-.36933.300005-.67467.672006-.67334.152.00133.29065.05068.41465.14268l.08935.01067c.69334-.344 1.38531-.69067 2.07598-1.03867l.04935-.08532c.00933-.356.25466-.63867.59199-.67467.35333-.03733.65067.17733.73467.532l.07067.07334c.656.16266 1.312.32799 1.96933.48932l.08666-.02799c.21066-.23467.48801-.304.78001-.19467l.08932-.01468c.76267-.68266 1.52269-1.36932 2.28539-2.05198l.0226-.10534c-.1186-.43067.1987-.84799.6454-.85999z" fill="#0B0146"/></svg>