<svg width="9" height="9" viewBox="0 0 9 9" fill="none" xmlns="http://www.w3.org/2000/svg"><path d="M6.58134 1.74878c.14133.00933.23733.05733.29733.16667l-.01468.33066-.31732.31331-.37868-.03997-.06533-.37601c.10133-.12533.22401-.23734.34535-.34534l.13333-.04932zM5.56666 3.55011c-.94533.952-1.89334 1.89865-2.84268 2.84532-.144.14266-.32132.14-.45599.004-.13066-.13333-.13199-.31198.00534-.44932.948-.94933 1.89598-1.89734 2.84531-2.84401.10267-.10266.22536-.13067.36136-.07467.116.04933.19198.17068.20931.30934l-.12265.20934zM.825317 6.13677C1.70132 7.0141 2.58666 7.90078 3.46799 8.78345 5.28933 6.95945 7.116 5.13144 8.93733 3.3061 8.06266 2.43144 7.17732 1.54476 6.29332.660759A10535.06003 10535.06003 0 00.825317 6.13677z" fill="#0B0146"/></svg>