<svg width="2" height="3" viewBox="0 0 2 3" fill="none" xmlns="http://www.w3.org/2000/svg"><path d="M.293197 1.09406H1.6665c-.04-.157334-.11997-.290667-.23997-.400001-.13333-.108-.27997-.162662-.439974-.162662-.173333 0-.320052.053326-.453385.159993-.133334.104-.213308.238669-.239974.40267zm1.600003.21735H.293197c0 .164.079948.308.213281.432.133333.11866.293385.17864.453385.17864.133337 0 .266587-.0333.386587-.10397l.25339-.28401h.25338c-.06666.17733-.17333.32534-.33333.44267-.17333.11733-.34667.17731-.533334.17731-.253333 0-.480052-.0893-.653385-.2693-.186667-.17867-.279948-.39869-.279948-.65736 0-.257331.093333-.47732.266666-.655987.186667-.18.4-.269336.666667-.269336.133334 0 .266584.029323.386584.089323s.22672.144018.32006.252018l.16002.314649c.02667.096003.03998.214683.03998.353353z" fill="#fff"/></svg>