<svg width="3" height="4" viewBox="0 0 3 4" fill="none" xmlns="http://www.w3.org/2000/svg"><path d="M.147949 2.29937l.33597-.03067c.016.136.053344.24534.110677.332.058667.08667.148004.15468.270671.20801.121333.05333.260013.08131.412013.08131.136 0 .25599-.02132.35999-.06132l.232-.16534.07601-.23066-.07334-.22132-.24268-.15866c-.07066-.02667-.23067-.07203-.47867-.1307-.246671-.06-.418656-.116-.518656-.168-.128-.06666-.223987-.15065-.286654-.25065C.282613 1.4047.250586 1.2927.250586 1.1687c0-.136.038682-.261343.116016-.38001C.443935.671357.555939.580689.703939.520689c.148-.061333.311991-.093327.493331-.093327.2 0 .37466.033332.52799.098666.15067.062666.26802.157347.35068.281347.08134.125334.12534.266655.132.423995l-.34134.02532c-.01867-.16933-.07999-.297317-.18665-.385317-.10534-.085334-.26134-.12933-.468-.12933-.216003 0-.372007.039984-.470674.117318l-.148014.285349.105338.23867c.068.06267.246669.12666.536.192.28934.06533.488.12267.596.172.156.072.27068.16398.34668.27464.07333.11067.11064.23735.11064.38135 0 .14267-.03999.27867-.12265.40401-.08134.12666-.19866.22532-.35332.29599-.15334.07067-.32535.10534-.51735.10534-.244 0-.447983-.03601-.611983-.10667-.164-.07067-.293353-.17732-.386686-.31999s-.142648-.30402-.147982-.48268z" fill="#3D3C3E"/></svg>