<svg width="4" height="4" viewBox="0 0 4 4" fill="none" xmlns="http://www.w3.org/2000/svg"><path d="M3.23992 1.33944h-.26666c-.09333-.132-.21336-.23468-.36003-.31201-.16-.074671-.31995-.113319-.47995-.113319-.26666 0-.50664.101329-.70664.299999-.2.2-.29336.43333-.29336.69867 0 .27866.10665.51598.30665.71598.2.2.43997.29867.70664.29867.16 0 .32-.03866.46666-.11732.14667-.07734.2667-.18402.36003-.31869h.26666c-.10666.2-.25325.36135-.45325.48268-.2.124-.41344.18532-.6401.18532-.34667 0-.6399-.11999-.89323-.35865-.24-.24134-.360029-.53733-.360029-.88799 0-.33867.120029-.628.360029-.868.24-.240005.53328-.358663.87994-.358663.12 0 .24003.015983.36003.049316l.31992.150684.24011.195993.18658.25733z" fill="#fff"/></svg>