<svg width="3" height="3" viewBox="0 0 3 3" fill="none" xmlns="http://www.w3.org/2000/svg"><path d="M2.15457 1.18613c-.12.048-.29997.08932-.53864.12399-.136.02-.23335.04133-.28935.06533l-.12933.10801-.04668.15599.1.21999c.06667.05866.16536.08935.29336.08935.12667 0 .24-.02935.33867-.08402l.21865-.22799c.03467-.07467.05332-.18533.05332-.33066v-.11999zm.0267.73597c-.12134.104-.24002.17735-.35202.22002-.11334.044-.23467.064-.36533.064-.21334 0-.37733-.05199-.491996-.15599-.116-.10534-.17334-.23867-.17334-.40134l.065332-.26136.170674-.18932.23733-.10801c.06534-.01733.16266-.03332.29333-.05065.26667-.03067.46266-.069347.58932-.113347l.00134-.085319c0-.134667-.03066-.229351-.09333-.284017-.084-.076-.20934-.111979-.37601-.111979-.15466 0-.26931.026648-.34398.081315-.07333.054666-.12933.150687-.16399.288021L.855908.770113C.885242.63278.933253.522112 1.00125.435445c.06667-.084.16399-.149328.29066-.194661.128-.048.27468-.069336.44134-.069336.16667 0 .30268.019992.40668.058658l.22932.14668.10267.225326c.01067.056.01599.157338.01599.305338v.44001c0 .30666.00668.49998.02135.58131l.08399.23334h-.34532l-.06666-.24001z" fill="#3D3C3E"/></svg>