<svg width="2" height="3" viewBox="0 0 2 3" fill="none" xmlns="http://www.w3.org/2000/svg"><path d="M.999886.947412c-.186667 0-.346615.069308-.479948.206638-.133333.13734-.2.30403-.2.4987 0 .18933.066667.35065.2.48399.133333.13466.293281.20133.479948.20133.200004 0 .360024-.06934.493364-.20667.13333-.14.18658-.30667.18658-.5 0-.196-.06666-.36-.2-.492L1.25327.999398.999886.947412zm0-.230664c.253334 0 .466714.089305.653384.270638.17333.181334.26667.394674.26667.644014 0 .25333-.08.47466-.26667.65999-.17333.184-.40005.27868-.653384.27868-.253333 0-.466719-.09067-.653385-.26934-.173334-.17866-.266667-.39465-.266667-.64798 0-.25733.08-.47736.266667-.66136.173333-.184.400052-.274642.653385-.274642z" fill="#fff"/></svg>