<svg width="2" height="3" viewBox="0 0 2 3" fill="none" xmlns="http://www.w3.org/2000/svg"><path d="M.377246 1.00211H1.46523c-.01333-.163998-.05599-.286666-.12399-.368-.10533-.128-.24267-.191992-.409339-.191992-.152 0-.27865.050653-.38265.151986C.446585.695437.389246.831445.377246 1.00211zm1.083984.53334l.34134.04267c-.05333.19867-.15333.35333-.29866.464-.14534.10933-.33066.164-.557328.164-.285333 0-.510677-.08667-.677344-.26267-.168-.17466-.250683-.42134-.250683-.73867 0-.326666.084019-.581328.253353-.762662.168-.181333.386656-.27067.655989-.27067.260003 0 .473343.087998.638673.265332.16533.177333.24801.426682.24801.74935l-.00267.08665H.359896c.012.21467.072014.37866.181347.49199.108.11334.244007.17068.406674.17068.121333 0 .225313-.032.310643-.096.08533-.06267.15334-.164.20267-.304z" fill="#3D3C3E"/></svg>