<svg width="49" height="9" viewBox="0 0 49 9" fill="none" xmlns="http://www.w3.org/2000/svg"><path d="M43.5947 8.79341c-5.2533-3.648-11.7853-5.85332-18.1866-5.85332-1.4334 0-2.86.11064-4.264.33998-2.92.47866-5.7841 1.42535-8.3601 2.89069-.1613.092-.3306.19462-.4132.35996-.0614.12-.0708.26002-.0761.39336-.012.26533-.0107.53063-.0053.79596C8.3707 6.65337 4.32942 6.03339.270752 5.87473 4.65742 4.16406 9.1067 2.55207 13.7534 1.7134c3.0866-.55733 6.1987-.854689 9.316-.854689 2.0747 0 4.152.132005 6.2253.405339 6.8427.90533 13.2854 3.44535 19.36 6.64935-1.6973.23466-3.384.52534-5.06.88001z" fill="#EACFA5"/></svg>