<svg width="11" height="8" viewBox="0 0 11 8" fill="none" xmlns="http://www.w3.org/2000/svg"><path d="M.06665 7.43677V.538103h.879948v.893327c.173332-.34133.413412-.599981.746742-.779981C2.02668.472782 2.3867.384782 2.7867.384782c.45334 0 .87998.086662 1.23998.261329.37333.174666.70666.435989 1 .785319l.1733.264.14662-.264c.22666-.32.54674-.574665.94674-.763998.2-.089333.39995-.160008.61328-.208008.21334-.049333.41342-.074642.61342-.074642.73333 0 1.45328.349314 2.14661 1.046648.25333.25067.42665.56267.53335.936.08.27867.1066.65867.1066 1.13334v3.936h-.93331V3.58742c0-.21333.00005-.39331-.01328-.53864-.01333-.14533-.04-.27603-.06667-.39203-.06666-.21733-.14672-.40265-.25338-.55332-.38667-.54666-.90664-.81998-1.57331-.81998-.29333 0-.57339.06931-.85339.20664-.26666.13867-.49333.32934-.66666.57601-.13334.184-.21334.42666-.26667.72666-.01333.17333-.02656.43733-.02656.79466v3.84935h-.93333V3.48875c0-.324-.01344-.56131-.04011-.70797-.05333-.23867-.14656-.46-.29323-.66533-.17333-.25067-.38666-.45201-.66666-.60401-.28-.152-.57334-.22799-.86667-.22799-.30667 0-.58672.06265-.85339.18532-.26666.12266-.49333.304-.66666.54134-.13334.18933-.22667.404-.26667.64-.04.23867-.066666.51864-.066666.83864v3.94802H.06665z" fill="#fff"/></svg>