<svg width="3" height="4" viewBox="0 0 3 4" fill="none" xmlns="http://www.w3.org/2000/svg"><path d="M.552002 2.29937l.336003-.03067c.014666.136.053343.24534.110677.332.058668.08667.148008.15468.270668.20801.12267.05333.26001.08131.41201.08131.136 0 .256-.02132.36-.06132l.232-.16534.07601-.23066-.07334-.22132-.24135-.15866c-.07333-.02667-.23201-.07203-.47867-.1307-.248-.06-.41999-.116-.51999-.168-.128001-.06666-.223988-.15065-.286655-.25065C.686699 1.4047.654671 1.2927.654671 1.1687c0-.136.038683-.261343.116016-.38001.076-.117333.189337-.208001.337333-.268001.148-.061333.312-.093327.49333-.093327.19867 0 .37466.033332.52666.098666.15333.062666.26935.157347.35202.281347.08133.125334.12533.266655.132.423995l-.34134.02532C2.25202 1.08736 2.19067.959373 2.084.871373c-.10533-.085334-.2613-.12933-.46797-.12933-.216 0-.372.039984-.47067.117318l-.148013.285349.105343.23867c.068.06267.24666.12666.536.192.28933.06533.48799.12267.59466.172.15733.072.27335.16398.34668.27464.07467.11067.11198.23735.11198.38135 0 .14267-.04132.27867-.12266.40401-.08133.12666-.19865.22532-.35332.29599-.15333.07067-.32535.10534-.51735.10534-.244 0-.44801-.03601-.61201-.10667-.164-.07067-.29332-.17732-.386654-.31999-.093333-.14267-.142681-.30402-.148014-.48268z" fill="#3D3C3E"/></svg>