<svg width="4" height="4" viewBox="0 0 4 4" fill="none" xmlns="http://www.w3.org/2000/svg"><path d="M.906616 2.29937l.336004-.03067c.016.136.05198.24534.11064.332.05867.08667.14801.15468.27067.20801.12134.05333.26002.08131.41335.08131.13467 0 .25466-.02132.35866-.06132l.232-.16534.07601-.23066-.07334-.22132-.24268-.15866c-.072-.02667-.23064-.07203-.47864-.1307-.24667-.06-.42002-.116-.51869-.168-.128-.06666-.22399-.15065-.28665-.25065-.06267-.09867-.09466-.21067-.09466-.33467 0-.136.03865-.261343.11598-.38001.07733-.117333.18934-.208001.33734-.268001.148-.061333.31199-.093327.49199-.093327.2 0 .37603.033332.52803.098666.15333.062666.26931.157347.35198.281347.08133.125334.12533.266655.132.423995l-.34134.02532c-.01867-.16933-.08132-.297317-.18666-.385317-.10533-.085334-.26133-.12933-.468-.12933-.216 0-.372.039984-.47067.117318l-.14801.285349.104.23867c.06934.06267.24801.12666.53734.192.28933.06533.488.12267.596.172.156.072.27201.16398.34534.27464.07467.11067.11201.23735.11201.38135 0 .14267-.04002.27867-.12269.40401-.08133.12666-.19865.22532-.35332.29599-.15333.07067-.32535.10534-.51735.10534-.244 0-.44798-.03601-.61198-.10667-.164-.07067-.29335-.17732-.38668-.31999-.094669-.14267-.14265-.30402-.147984-.48268z" fill="#3D3C3E"/></svg>