<svg width="2" height="3" viewBox="0 0 2 3" fill="none" xmlns="http://www.w3.org/2000/svg"><path d="M1.45856 1.45013l.32533.0413c-.036.224-.12664.3987-.27331.52536-.14533.12667-.32534.18933-.537338.18933-.266666 0-.481342-.08667-.642676-.26133C.1679 1.77145.087891 1.52211.087891 1.19544c0-.209335.03467-.391987.104004-.551987C.261228.48612.367913.367433.510579.2901.651913.2101.80791.171448.974577.171448c.212003 0 .385323.053326.519983.159993.13334.106667.22.258656.25866.45599L1.4319.83678C1.40123.706113 1.34657.60745 1.26924.540784L.987891.442118c-.166667 0-.301306.059981-.405306.179981-.104.118666-.156023.306665-.156023.565331 0 .26133.050684.45067.150684.56934.1.11866.230659.17868.391992.17868.129332 0 .237322-.03999.323992-.11999.088-.07867.14266-.20133.16533-.36533z" fill="#3D3C3E"/></svg>