<svg width="2" height="3" viewBox="0 0 2 3" fill="none" xmlns="http://www.w3.org/2000/svg"><path d="M.786621 1.59409h.226559l.09336.23734.23998.096.21341-.07999.09336-.21201-.10677-.232-.22657-.10667-.12005-.03734-.06666-.02265-.146619-.09867L.87985.987419.839876.803434c0-.142666.05336-.261321.160026-.354655.093338-.094666.213358-.142675.360028-.142675.13333 0 .24.048009.33333.142675.10667.094667.16003.206671.16003.337338H1.5999L1.53324.604769l-.2-.068001-.17331.072005-.08008.17334.10677.202669.21328.093328c.16.04933.26662.10667.34662.16933l.10677.15066.03997.19599c0 .16534-.05336.30134-.16002.40667-.10667.10534-.25329.15866-.41329.15866-.14666 0-.28005-.056-.386714-.16666-.093334-.112-.146615-.24533-.146615-.39867z" fill="#fff"/></svg>