<svg width="3" height="3" viewBox="0 0 3 3" fill="none" xmlns="http://www.w3.org/2000/svg"><path d="M1.12 1.09943h1.37331c-.04-.157333-.11997-.290666-.23997-.4C2.12.59143 1.97323.536768 1.81323.536768c-.17333 0-.31992.053325-.45325.158658C1.23998.80076 1.16.93543 1.12 1.09943zm1.61328.21735H1.12c0 .164.07995.308.21328.43066.13334.12.29339.17999.45339.17999.13333 0 .26659-.03334.38659-.10401l.25338-.28398h.25326c-.06667.17733-.17333.32401-.33333.44267-.16.11734-.34667.17731-.53334.17731-.25333 0-.47992-.08933-.65325-.26933-.186669-.17867-.266669-.39866-.266669-.65733 0-.258663.08-.477319.266669-.655986.17333-.18.38659-.27067.65325-.27067.13334 0 .26672.030657.38672.090657s.22672.144018.32005.252018l.1599.314649c.04.096002.05338.214682.05338.353352z" fill="#fff"/></svg>