<svg width="3" height="3" viewBox="0 0 3 3" fill="none" xmlns="http://www.w3.org/2000/svg"><path d="M.733138 1.09943H2.09316c-.02666-.157333-.10664-.290666-.23997-.4-.12-.108-.26677-.162662-.4401-.162662-.16 0-.30664.053325-.439978.158658C.839779.80076.759805.93543.733138 1.09943zm1.600002.21735H.733138c0 .164.066615.308.213281.43066.133331.12.280051.17999.453381.17999.13334 0 .25331-.03334.37331-.10401l.25339-.28398h.25325c-.05333.17733-.17333.32401-.33333.44267-.16.11734-.33326.17731-.51992.17731-.26667 0-.480003-.08933-.666669-.26933-.173334-.17867-.266667-.39866-.266667-.65733 0-.258663.093333-.477319.266667-.655986.173333-.18.399919-.27067.653259-.27067.14666 0 .26666.030657.4.090657.12.06.22677.144018.30677.252018l.1733.314649c.02667.096002.03998.214682.03998.353352z" fill="#fff"/></svg>