<svg width="23" height="7" viewBox="0 0 23 7" fill="none" xmlns="http://www.w3.org/2000/svg"><path d="M21.9465 4.03944C19.0532 1.56478 15.6532.231452 12.1066.180786c-2.94671 0-5.30663.529318-7.6533 1.717314-1.16.588-2.2401 1.32667-3.2401 2.19733-.42667.38667-.573284.90399-.413284 1.45599.173333.556.586714.8787 1.320054.96804.42666 0 .75997-.22266 1.03997-.46133 3.05333-2.536 6.58667-3.53737 10.46666-2.96803 2.4.34666 4.6 1.36803 6.5333 3.0347.2934.25733.64.39596.9866.39596.4 0 .7467-.16935 1.0267-.48268.5067-.60534.4267-1.4453-.2267-1.99864z" fill="#0B0146"/></svg>