<svg width="6" height="4" viewBox="0 0 6 4" fill="none" xmlns="http://www.w3.org/2000/svg"><path d="M5.00662 2.74342c-.41067-.34267-.81198-.69466-1.23731-1.06-.204.168-.38798.31998-.58398.48132-.196-.156-.38135-.30534-.58535-.46934-.412.35067-.8147.69734-1.2267 1.036l-.2373.08269-.04134-.096c.444-.38.88799-.76003 1.35599-1.16269-.412-.35734-.80663-.695981-1.19597-1.042647L1.14399.298072 1.36.374081c.52933.448 1.05465.903989 1.58132 1.354659l.24401.18134C3.78799 1.39275 4.37996.882085 4.98129.378085l.2347-.069336-.12402.215983c-.37734.337333-.76268.667998-1.17468 1.029328.24934.216.48138.41735.71472.61869.16933.14533.3453.284.50664.436l.08932.18799-.22135-.05332zM5.28396.055396c-.696.009333-1.39196.00267-2.08796.00267v.002668c-.70533 0-1.40934.007995-2.11334-.005338-.245335-.004-.336002.08269-.333335.324023.006666.785331.005333 1.570661 0 2.355991-.001334.22267.075979.31998.311975.31865 1.41067-.00667 2.8187-.00533 4.22937 0 .22666.00133.32265-.07998.31998-.31064-.00666-.78534-.00933-1.57069 0-2.356025.00267-.241334-.08269-.334666-.32669-.332z" fill="#100F0D"/></svg>