<svg width="3" height="3" viewBox="0 0 3 3" fill="none" xmlns="http://www.w3.org/2000/svg"><path d="M1.25339.531397c-.18667 0-.360031.069338-.493364.205338-.146667.136-.213411.301335-.213411.497335 0 .19066.066744.35198.213411.48798.146667.13467.306644.2.506644.2.17333 0 .33328-.06663.47994-.20263.13334-.13734.2-.29735.2-.48135 0-.196-.06666-.362666-.2-.498666-.13333-.138666-.29322-.208007-.49322-.208007zm.91992-.190658V2.11141h-.2267v-.33333c-.06666.11866-.15989.21198-.29322.28131-.12.06267-.25339.09466-.38672.09466-.14667 0-.279951-.02932-.413285-.09065-.133333-.06267-.26677-.15732-.373437-.28532L.373307 1.5714l-.066666-.35599.066666-.335999.120052-.201335c.12-.137333.253256-.234663.386589-.295996.12-.053333.240102-.080013.373442-.080013l.21328.021322.18672.072005c.13333.066667.22656.160016.29322.282682V.340739h.2267z" fill="#fff"/></svg>