<svg width="46" height="129" viewBox="0 0 46 129" fill="none" xmlns="http://www.w3.org/2000/svg"><path d="M34.5254 97.2675c-9.9627-1.2627-14.8134-8.4-16.32-17.7893-1.884-11.732-1.168-24.512.7546-36.212 1.3574-8.256 6.124-15.9654 14.9187-17.3467 3.632-.5693 7.444-.5773 11.248-.4V1.00481c-5-.073337-9.964.11866-14.748.86934C14.8067 4.31414 6.36536 17.9461 3.96269 32.5435.557361 53.2301-.70931 75.8262 2.62536 96.5702 5.29469 113.173 13.8827 125.792 31.524 128.025c4.5.568 9.048.673 13.6027.47V97.3168c-3.5453.3294-7.0987.3947-10.6013-.0493z" fill="#EBEAD9"/></svg>