<svg width="10" height="8" viewBox="0 0 10 8" fill="none" xmlns="http://www.w3.org/2000/svg"><path d="M8.5332 7.40872H1.43984c-.506663 0-.906637-.39066-.906637-.89866V2.49671c0-.49467.400026-.88666.893357-.88932.18667-.00134.37331-.00134.57331-.00134h.45339c.21333 0 .34661-.09866.41328-.29733.08-.24933.16005-.501348.25338-.750681.05334-.193333.2-.290658.4-.290658h2.9599c.2 0 .33333.097323.4.289323.08.249333.17338.501356.25338.752016.06667.20134.19995.29733.41328.29867H8.5599c.50666.00133.89336.39201.89336.90934.01333 1.324.01333 2.64667 0 3.96934 0 .53733-.38672.92265-.92006.92265zM4.99987 2.05403c-1.22667 0-2.22669.9987-2.22669 2.22536 0 1.23867.98669 2.23467 2.22669 2.23467 1.22667-.00133 2.22669-.99602 2.22669-2.21735 0-1.244-.98669-2.24268-2.22669-2.24268zm3.27995.77068c.08 0 .17333.00133.26666.00133.04 0 .09334-.00133.13334-.00133.14666-.00134.25338-.10398.25338-.23998 0-.13333-.10664-.24134-.23997-.24401-.14667-.00133-.28008-.00267-.41341-.00267-.14667 0-.2799.00134-.42656.00267-.13334.00133-.24011.11465-.24011.24932 0 .13466.10672.23333.25339.23467.05333 0 .09333.00133.13333.00133.09333 0 .18661-.00133.27995-.00133z" fill="#AFAEAA"/></svg>