<svg width="3" height="3" viewBox="0 0 3 3" fill="none" xmlns="http://www.w3.org/2000/svg"><path d="M2.49313 1.59272h.26667c-.08.17334-.20008.31068-.34675.41068-.16.1-.33325.15065-.51992.15065-.26667 0-.49341-.08799-.68008-.26399-.18666-.176-.279945-.39867-.279945-.66534 0-.25733.093285-.475985.279945-.654652.18667-.178666.41334-.268001.66667-.268001.2 0 .37333.05199.53333.15599.16.102666.28008.242686.34675.420019h-.26667L2.23975.627393c-.12-.064-.22662-.095996-.34662-.095996-.2 0-.37338.066664-.52005.19733-.13333.130667-.2.295993-.2.491993 0 .19733.06667.3627.2.4987.13333.136.29336.20263.49336.20263.13333 0 .25336-.02531.36002-.07864l.26667-.25069z" fill="#fff"/></svg>