<svg width="21" height="17" viewBox="0 0 21 17" fill="none" xmlns="http://www.w3.org/2000/svg"><path d="M18.0265 16.5128H2.25316c-1.13334-.0013-2.000081-.8693-2.013414-1.996V5.60347c.013333-1.1.880054-1.97201 1.986714-1.976.29334-.00267.58662-.00267.87995-.00267.46667 0 .93334.00133 1.4.00133.46667-.00133.77339-.22266.92005-.66133.17334-.556.35995-1.11333.54662-1.66933.14667-.428004.45336-.645316.89336-.645316h6.58676c.44 0 .7466.215977.8799.642646.1867.556.3734 1.11333.56 1.66933.1467.44534.4534.66267.9334.664.4933 0 .9867-.00133 1.4933-.00133.24 0 .4934 0 .7334.00133 1.16.004 2.0132.86935 2.0132 2.02135v8.81862c0 1.1907-.8533 2.0454-2.0399 2.0467zM10.1464 4.61816c-2.72001.00133-4.94663 2.21997-4.94663 4.94531 0 2.75063 2.21336 4.96403 4.96003 4.96133 2.7333-.0013 4.9466-2.2133 4.9466-4.92666.0133-2.76134-2.2-4.97998-4.96-4.97998zm7.2933 1.71331h.4934c.1333 0 .2666 0 .4133-.00134.32-.00266.5467-.23066.5467-.53066.0134-.29867-.2266-.54001-.5333-.54401-.3067-.004-.6134-.00531-.9201-.00531-.3066 0-.6132.00131-.9199.00531-.32.00267-.5601.25469-.5467.55469 0 .29866.24.51865.56.51998.1467.00134.28.00134.4133.00134h.4933z" fill="#A0A19D"/></svg>