<svg width="3" height="3" viewBox="0 0 3 3" fill="none" xmlns="http://www.w3.org/2000/svg"><path d="M.759993 1.09943H2.12002c-.02667-.157333-.10677-.290666-.2401-.4-.13334-.108-.27998-.162662-.43998-.162662-.16 0-.31997.053325-.439973.158658C.866634.80076.78666.93543.759993 1.09943zm1.599997.21735H.759993c0 .164.066615.308.213282.43066.133335.12.280055.17999.453385.17999.13333 0 .25331-.03334.37331-.10401l.25338-.28398h.25326c-.06667.17733-.17334.32401-.33334.44267-.16.11734-.33333.17731-.53333.17731-.25333 0-.479921-.08933-.653254-.26933C.613353 1.71142.52002 1.49143.52002 1.23276c0-.258663.08-.477319.266666-.655986.173333-.18.399924-.27067.653254-.27067.13333 0 .26672.030657.38672.090657.13333.06.23992.144018.31992.252018l.17344.314649c.02667.096002.03997.214682.03997.353352z" fill="#fff"/></svg>