<svg width="9" height="7" viewBox="0 0 9 7" fill="none" xmlns="http://www.w3.org/2000/svg"><path d="M3.7599 6.11813c-.16-.26666-.33331-.53203-.50664-.79736.84-.316 1.44-1.11866 1.46666-2.064C4.74659 1.99944 3.74656.968799 2.49323.950132h-.03997c-.69334 0-1.30672.311978-1.720057.810648-.2-.24934-.400052-.49998-.586719-.74532C.719818.400798 1.54659.0168 2.45326.0168c1.77333-.001334 3.2 1.42797 3.2 3.20664 0 1.28667-.77336 2.39869-1.89336 2.89469zm3.70664-4.99866h-.32006c-.18666 0-.38664 0-.5733-.00134-.21334-.00133-.35998-.143996-.37331-.333329 0-.194667.14669-.356025.36003-.358692.18666-.002667.38658-.004004.58658-.004004s.40006.001337.58672.004004c.21334.002667.36003.15735.36003.350684-.01333.194666-.16003.340007-.36003.341337-.09333.00134-.17333.00134-.26666.00134z" fill="#EACFA5"/></svg>