<svg width="4" height="3" viewBox="0 0 4 3" fill="none" xmlns="http://www.w3.org/2000/svg"><path d="M.595947 2.16211V.215462h.295996V.48877L1.13462.258106c.10133-.058667.21735-.086654.34668-.086654.144 0 .26266.029323.35599.089323l.19466.252018c.15467-.228.35467-.341341.60133-.341341.19334 0 .34268.053327.44668.159993.10267.106667.15466.271995.15466.494662V2.16211h-.328V.935449c0-.132-.01066-.226652-.03199-.285319L2.75861.511458 2.55994.458106c-.136 0-.25067.045335-.34134.136002-.09066.090667-.13466.237336-.13466.436002v1.132h-.33067V.898112c0-.148-.02665-.257331-.07998-.330664-.05467-.073333-.14266-.109342-.26533-.109342L1.1506.530111.979964.746126c-.036.093334-.053353.228006-.053353.405334v1.01065H.595947z" fill="#3D3C3E"/></svg>