<svg width="3" height="3" viewBox="0 0 3 3" fill="none" xmlns="http://www.w3.org/2000/svg"><path d="M1.87987.947412c-.18667 0-.3599.069308-.49323.206638-.13334.13734-.2.30403-.2.4987 0 .18933.06661.35065.21328.48399.13333.13466.29328.20133.47995.20133.2 0 .36002-.06934.49336-.20667.12-.14.18671-.30667.18671-.5 0-.196-.06666-.36-.2-.492L2.13325.999398 1.87987.947412zm0-.230664c.24 0 .46677.089305.6401.270638.18667.181334.27995.394674.27995.644014 0 .25333-.09333.47466-.26667.65999-.18666.184-.40005.27868-.65338.27868-.25334 0-.46659-.09067-.65326-.26934-.18667-.17866-.280077-.39465-.280077-.64798 0-.25733.093407-.47736.280077-.66136.17333-.184.39992-.274642.65326-.274642z" fill="#fff"/></svg>