<svg width="8" height="8" viewBox="0 0 8 8" fill="none" xmlns="http://www.w3.org/2000/svg"><path d="M.986556 3.4754H6.2932c-.12-.616-.42667-1.13466-.93334-1.55732-.49333-.42267-1.06669-.63467-1.69336-.63467-.65333 0-1.23994.20531-1.74661.61598S1.09322 2.8354.986556 3.4754zm6.239974.84401H.986556c0 .64133.266614 1.20265.813284 1.68265.53333.468 1.1333.70133 1.7733.70133.53334 0 1.01342-.13467 1.48008-.40533.45334-.272.8-.64135 1-1.10935h.97331c-.24.68934-.66664 1.26536-1.30664 1.72536-.62667.45867-1.32005.68932-2.05339.68932-1.01333 0-1.86669-.34934-2.56002-1.04668C.399811 5.85938.053223 5.00338.053223 3.99405c0-1.00667.34664-1.85866 1.039977-2.55999C1.78653.735392 2.63989.384742 3.65322.384742c.53334 0 1.03992.117317 1.51992.350651.48.234666.89331.562657 1.23998.985317.32.37733.53338.78535.65338 1.22002.10667.37733.16003.83735.16003 1.37868z" fill="#fff"/></svg>