<svg width="8" height="10" viewBox="0 0 8 10" fill="none" xmlns="http://www.w3.org/2000/svg"><path d="M3.89313 6.70344c.77333 0 1.42669-.256 1.96003-.76934.54666-.51333.81328-1.15599.81328-1.92799 0-.752-.26672-1.39333-.78672-1.92533-.53333-.53066-1.17326-.79733-1.91992-.79733-.77334 0-1.42669.25199-1.96003.75733-.54666.50533-.81328 1.13599-.81328 1.89065 0 .39067.05331.744.17331 1.06.10666.316.29328.604.54661.86666.26667.26.55998.46535.90664.61735.34667.15334.70675.228 1.08008.228zM.319824.538107h.879946V1.72076c.26667-.42267.66667-.757308 1.2-1.003975C2.89311.495452 3.41313.384787 3.9598.384787c.50666 0 1 .105316 1.46666.315982.46667.213334.92003.551991 1.36003 1.019991.21333.20133.41331.51734.57331.94534.16.42933.23997.88002.23997 1.35335 0 1.00534-.35997 1.85332-1.10664 2.54665-.73333.69067-1.61336 1.03734-2.62669 1.03734-.54667 0-1.05339-.12133-1.52005-.36266-.50667-.26-.86657-.62266-1.09323-1.092v3.70931H.319824V.538107z" fill="#fff"/></svg>