<svg width="3" height="3" viewBox="0 0 3 3" fill="none" xmlns="http://www.w3.org/2000/svg"><path d="M1.57314.531461c-.18666 0-.34666.066669-.46666.201335-.133335.132-.200002.292014-.200002.476014 0 .2.066667.368.200002.50667.12.13867.28008.20664.48008.20664l.26666-.04665.22657-.15335.14674-.228.05326-.26666c0-.19734-.06662-.362664-.21329-.494664C1.93317.59813 1.77314.531461 1.57314.531461zm.93334-.190657V1.85946c0 .16-.00003.27735-.02669.34935l-.17331.308c-.09334.09067-.18659.16132-.31992.21198-.12.04934-.25339.07468-.38672.07468-.2 0-.37328-.06002-.54662-.18002-.159997-.12-.266716-.276-.320049-.46933h.239974c.066665.13466.159995.23734.266665.30801.10667.07466.24005.11334.38672.11334l.33333-.07868.23998-.23066.06666-.19733.01329-.20934v-.09733c-.05334.12533-.14662.22399-.27995.29599-.13334.064-.26662.096-.41328.096l-.33334-.06931-.306768-.18935-.2-.30267c-.053334-.11333-.079948-.23333-.079948-.36133l.013281-.17067.053386-.169335.10664-.206641C.946478.546148 1.0665.444812 1.19984.382145c.10666-.053333.23997-.080013.3733-.080013.14667 0 .28008.030661.41342.094662.13333.067999.22656.16402.29323.28802v-.34401h.22669z" fill="#fff"/></svg>