<svg width="3" height="3" viewBox="0 0 3 3" fill="none" xmlns="http://www.w3.org/2000/svg"><path d="M.586784 1.09943H1.94668c-.02667-.157333-.10664-.290666-.23997-.4-.12-.108-.26664-.162662-.43998-.162662-.16 0-.306639.053325-.439972.158658C.693424.80076.61345.93543.586784 1.09943zm1.599996.21735H.586784c0 .164.066614.308.213281.43066.133333.12.280055.17999.453385.17999.13333 0 .25331-.03334.37331-.10401l.26666-.28398h.23998c-.05333.17733-.17333.32401-.33333.44267-.16.11734-.33339.17731-.52006.17731-.26666 0-.479997-.08933-.666664-.26933C.440013 1.71142.34668 1.49143.34668 1.23276c0-.258663.093333-.477319.266666-.655986.173334-.18.400054-.27067.653384-.27067.13334 0 .26667.030657.4.090657.12.06.22672.144018.32005.252018l.1599.314649c.02667.096002.0401.214682.0401.353352z" fill="#fff"/></svg>